<svg aria-hidden="true" style="position:absolute;width:0;height:0;overflow:hidden" xmlns="http://www.w3.org/2000/svg"><defs><symbol id="icon-Logo-5" viewBox="0 0 32 32"><path d="M16.13 15.22a.89.89 0 0 1-.18-.6v-.87c0-.27.06-.47.18-.61s.33-.2.62-.2c.28 0 .47.05.6.17.12.15.18.34.16.52v.2h-.49v-.2l-.01-.2a.2.2 0 0 0-.08-.12.29.29 0 0 0-.17-.05.3.3 0 0 0-.2.05.23.23 0 0 0-.08.13.97.97 0 0 0-.01.22v1.05c-.01.1.01.2.06.3.02.03.06.06.1.07l.13.02c.06 0 .12-.01.17-.05a.22.22 0 0 0 .08-.13l.01-.2v-.22h.5v.2a.8.8 0 0 1-.17.54c-.12.13-.31.2-.6.2s-.5-.07-.62-.22zM18.2 15.23c-.13-.14-.2-.34-.2-.6v-.91c0-.26.07-.46.2-.6s.32-.19.62-.19c.29 0 .5.07.62.2s.2.33.2.59v.91c0 .26-.07.46-.2.6s-.33.2-.62.2-.5-.07-.63-.2zm.85-.22a.5.5 0 0 0 .06-.27V13.6a.5.5 0 0 0-.06-.26c-.03-.03-.06-.06-.1-.07s-.09-.03-.13-.02c-.05 0-.1 0-.13.02s-.08.04-.1.07a.48.48 0 0 0-.06.26v1.13c-.01.1.01.19.05.27l.1.07c.04.02.1.02.14.02a.34.34 0 0 0 .23-.09zM20.23 12.96h.53l.4 1.69.41-1.7h.52l.05 2.45h-.38l-.04-1.7-.4 1.7h-.3l-.42-1.7-.04 1.7h-.38l.04-2.44zM22.74 12.96h.83c.48 0 .72.23.72.69 0 .44-.25.66-.76.66h-.28v1.09h-.51v-2.44zm.71 1.04a.38.38 0 0 0 .28-.08.4.4 0 0 0 .08-.27c0-.08 0-.15-.03-.22 0-.03-.02-.05-.04-.07l-.06-.05a.54.54 0 0 0-.23-.04h-.2V14h.2zM25.03 12.96h.55l.56 2.44h-.47l-.12-.57h-.49l-.11.57h-.49l.57-2.44zm.47 1.6-.2-1.03-.18 1.02h.38zM26.6 12.96h.36l.69 1.39v-1.4h.42v2.45h-.34l-.69-1.46v1.46h-.44v-2.44zM29.07 14.47l-.57-1.5h.48l.35.96.33-.97h.47l-.57 1.5v.94h-.49v-.93zM16.92 16.46v.13h-.42v1h-.17v-1h-.42v-.13h1.01zM18.23 17.58h-.13l-.04-.01a.06.06 0 0 1-.02-.03l-.13-.26h-.58l-.12.26-.01.03a.07.07 0 0 1-.04.01h-.14l.52-1.11h.17l.52 1.11zm-.85-.41h.49l-.2-.46a.83.83 0 0 1-.05-.1c0 .02 0 .04-.02.06l-.01.04-.2.46zM19.12 17.47h.1a.56.56 0 0 0 .15-.03l.07-.03v-.25h-.22l-.02-.01v-.11h.4v.43a.71.71 0 0 1-.23.1.93.93 0 0 1-.27.02.75.75 0 0 1-.26-.04.62.62 0 0 1-.2-.12.54.54 0 0 1-.18-.4.51.51 0 0 1 .18-.41.6.6 0 0 1 .2-.12.85.85 0 0 1 .42-.03.7.7 0 0 1 .22.07l.09.06-.05.07-.02.01h-.05a.51.51 0 0 1-.05-.03.62.62 0 0 0-.3-.07.6.6 0 0 0-.2.04.43.43 0 0 0-.14.09.38.38 0 0 0-.1.13.52.52 0 0 0 0 .38c.02.05.06.1.1.14.05.04.1.07.16.09.06.02.13.02.2.02zM20.75 17.45h.56v.13h-.73v-1.12h.17v1zM21.9 17.58h-.18v-1.12h.17v1.12zM22.55 16.47l.02.02.75.84V16.46h.16v1.12h-.13a.12.12 0 0 1-.03-.03l-.75-.84v.88h-.14v-1.13h.09a.1.1 0 0 1 .03 0zM24.77 16.46v.12h-.63v.37h.5v.12h-.5v.39h.63v.12h-.8v-1.12h.8zM6.39 9.56l7.79 1.9v6.7l-7.8-1.91v-6.7zm-.5-.57v7.58l8.78 2.16v-7.59L5.9 9z"/><path d="M10.6 22.25 1.8 20.09v-7.58l8.79 2.15v7.59zM6.04 9.47l7.68 1.89-3.27 2.82-7.68-1.89 3.27-2.82zm-.15-.48L1.8 12.5l8.79 2.15 4.07-3.52L5.9 9zM11.1 21.82l3.57-3.1-3.58-.87v3.97z"/></symbol><symbol id="icon-Logo-4" viewBox="0 0 32 32"><path d="M8.08 20.45c.07.08.11.19.1.3.01.06 0 .13-.03.2s-.07.12-.13.17a.8.8 0 0 1-.5.13h-.88v-1.87h.86c.17 0 .34.04.48.13.05.04.1.1.13.15s.04.13.03.2c0 .1-.03.2-.1.28a.48.48 0 0 1-.26.15.5.5 0 0 1 .3.16zm-1.03-.28h.37c.08 0 .16-.02.23-.07.03-.02.05-.05.06-.08l.02-.1c0-.03 0-.07-.02-.1l-.06-.08a.38.38 0 0 0-.24-.06h-.36v.49zm.64.71.06-.08a.27.27 0 0 0 .02-.1.22.22 0 0 0-.09-.2.4.4 0 0 0-.24-.07h-.39v.52h.39a.4.4 0 0 0 .25-.07zM9.83 21.25l-.47-.73h-.18v.73h-.42v-1.87h.78c.2-.01.4.05.54.16.11.1.18.24.19.38s-.03.28-.13.4c-.1.1-.22.16-.37.18l.51.75h-.45zm-.65-.98h.33c.24 0 .35-.1.35-.29 0-.04 0-.07-.02-.1l-.06-.1a.4.4 0 0 0-.27-.08h-.34v.57zM12.08 20.88h-.82l-.14.37h-.44l.76-1.85h.46l.75 1.85h-.43l-.14-.37zm-.11-.29-.3-.79-.3.8h.6zM14.89 21.25h-.4l-.92-1.27v1.27h-.4v-1.87h.4l.91 1.28v-1.28h.41v1.87zM17.22 20.8a.85.85 0 0 1-.37.33 1.3 1.3 0 0 1-.58.12h-.72v-1.87h.72c.2 0 .4.04.58.12.15.07.28.18.37.32a1.01 1.01 0 0 1 0 .98zm-.47-.04c.12-.12.18-.28.18-.45s-.06-.32-.18-.44a.75.75 0 0 0-.51-.16h-.28v1.2h.28c.19.02.37-.04.51-.15zM12.33 8.99s5.27 1.82 5.16 4.45v4.45s-5.26-1.82-5.15-4.45V8.99zM22.18 16.85c1-.63 2.14-1.01 3.34-1.13v-1.4a6.76 6.76 0 0 0-3.34 2.53z"/><path d="M21.58 17.27a6.98 6.98 0 0 1 3.94-3.23v-4.02s-7.5 2.59-7.34 6.34v6.34s.34-.11.86-.33c0-.2 0-.4.03-.61a6.42 6.42 0 0 1 2.5-4.49z"/><path  d="M20.87 19.63c.03-.44.12-.88.26-1.3a5.87 5.87 0 0 0-1.59 3.83c.43-.19.92-.42 1.44-.7a6.03 6.03 0 0 1-.12-1.83zM21.16 19.65c-.05.56-.01 1.11.1 1.66 2.05-1.12 4.35-2.85 4.26-4.95v-.18a7 7 0 0 0-3.9 1.66c-.25.58-.4 1.19-.46 1.8z"/></symbol><symbol id="icon-Logo-3" viewBox="0 0 32 32"><path d="M7.29 13.31c-.73 0-1.31.53-1.31 1.17 0 .64.58 1.16 1.3 1.16.73 0 1.32-.52 1.32-1.16 0-.64-.59-1.17-1.31-1.17zM16.96 12.94c0-.9-.4-1.75-1.1-2.38s-1.68-.99-2.69-.99c-1 0-1.97.36-2.68.99s-1.11 1.49-1.11 2.38v4.93s7.58-.75 7.58-4.93zM3.32 19.49c0 .62.28 1.21.78 1.65s1.16.7 1.86.7c.7 0 1.37-.26 1.87-.7s.77-1.03.77-1.65v-3.43s-5.28.52-5.28 3.43zm2.64.61c-.14 0-.27-.04-.38-.1s-.2-.17-.26-.28c-.05-.11-.07-.23-.04-.35s.1-.23.2-.32c.09-.09.21-.14.34-.17s.28 0 .4.04a.6.6 0 0 1 .43.57c0 .08-.02.16-.05.23s-.09.14-.15.2a.82.82 0 0 1-.49.18zM11.3 19.76h-.51v.53h-.27V19h.84v.22h-.57v.33h.5v.21zm1.27-.09c0 .13-.02.24-.07.34a.51.51 0 0 1-.48.3.53.53 0 0 1-.48-.3.76.76 0 0 1-.07-.33v-.06c0-.13.03-.24.07-.34s.11-.17.2-.22c.08-.05.17-.08.28-.08s.2.03.29.08c.08.05.15.13.2.22s.06.21.06.34v.05zm-.27-.05c0-.14-.02-.24-.07-.31s-.12-.1-.2-.1c-.1 0-.16.03-.21.1s-.08.17-.08.3v.06c0 .13.03.24.08.31s.11.1.2.1c.1 0 .16-.03.21-.1s.07-.17.07-.3v-.06zm1.13.33c0-.05-.02-.09-.05-.11l-.2-.09-.21-.09c-.15-.08-.22-.18-.22-.32 0-.07.02-.13.06-.18s.1-.1.17-.13.15-.05.25-.05.17.02.24.05a.4.4 0 0 1 .23.35h-.27c0-.06-.02-.1-.05-.13s-.1-.05-.16-.05-.11.01-.15.04-.05.06-.05.1c0 .05.02.08.06.11s.1.06.19.08c.15.05.26.1.33.17s.1.15.1.25c0 .11-.04.2-.13.26s-.2.1-.34.1c-.1 0-.19-.02-.27-.05s-.14-.1-.19-.15a.39.39 0 0 1-.06-.22h.27c0 .14.08.21.25.21.06 0 .11-.01.15-.04s.05-.06.05-.1zm1.42-.73h-.4v1.07h-.26v-1.07h-.39V19h1.05v.22zm.93.51h-.51v.35h.6v.2H15V19h.86v.22h-.6v.3h.52v.21zm.72.09h-.22v.47h-.26V19h.48c.15 0 .27.03.35.1s.12.17.12.29c0 .09-.01.16-.05.22s-.1.1-.18.14l.28.52v.02h-.28l-.24-.47zm-.22-.22h.22c.06 0 .12-.01.15-.05s.06-.08.06-.14c0-.06-.02-.1-.05-.14s-.1-.05-.16-.05h-.22v.38zm1.61.23v.46h-.26V19h.5c.1 0 .18.02.25.05s.13.09.17.16c.04.06.06.13.06.22 0 .12-.04.22-.13.3s-.2.1-.35.1h-.24zm0-.21h.24c.07 0 .12-.02.16-.05s.05-.08.05-.14c0-.06-.01-.12-.05-.15s-.09-.06-.16-.06h-.24v.4zm1.68.11h-.5v.35h.59v.2h-.86V19h.86v.22h-.6v.3h.51v.21zm1.23-.51h-.4v1.07h-.26v-1.07h-.39V19h1.05v.22zm.93.51h-.51v.35h.6v.2h-.87V19h.87v.22h-.6v.3h.5v.21zm.72.09h-.21v.47h-.27V19h.48c.15 0 .27.03.35.1s.13.17.13.29c0 .09-.02.16-.06.22s-.1.1-.17.14l.28.52v.02h-.29l-.24-.47zm-.21-.22h.21c.07 0 .12-.01.16-.05s.05-.08.05-.14c0-.06-.02-.1-.05-.14s-.09-.05-.16-.05h-.21v.38zm1.56.35c0-.05-.02-.09-.06-.11l-.19-.09-.21-.09c-.15-.08-.22-.18-.22-.32 0-.07.01-.13.05-.18s.1-.1.17-.13c.08-.03.16-.05.25-.05s.18.02.25.05c.07.04.12.08.16.15s.06.13.06.2h-.26c0-.06-.02-.1-.06-.13s-.09-.05-.15-.05c-.07 0-.12.01-.16.04s-.05.06-.05.1c0 .05.02.08.06.11s.1.06.2.08c.14.05.25.1.32.17s.1.15.1.25c0 .11-.04.2-.12.26s-.2.1-.34.1c-.1 0-.2-.02-.27-.05s-.15-.1-.19-.15a.39.39 0 0 1-.06-.22h.26c0 .14.09.21.26.21.06 0 .1-.01.14-.04s.06-.06.06-.1z"/></symbol><symbol id="icon-Logo-2" viewBox="0 0 32 32"><path d="M11 21.77h.02l.06.07a.53.53 0 0 1-.18.12.73.73 0 0 1-.27.04.68.68 0 0 1-.24-.04.5.5 0 0 1-.3-.29.58.58 0 0 1-.05-.22c0-.08.01-.15.05-.23a.53.53 0 0 1 .32-.29.78.78 0 0 1 .5 0l.17.1-.06.07-.01.01h-.05l-.03-.02-.04-.02-.05-.02a.53.53 0 0 0-.17-.03c-.07 0-.13.01-.19.03a.4.4 0 0 0-.24.22.45.45 0 0 0-.03.18c0 .06.01.12.04.18.02.04.05.1.09.13.03.04.08.06.13.08.06.02.11.03.17.03h.1a.4.4 0 0 0 .22-.1h.03zM12.9 21.45c0 .08-.02.15-.05.22-.03.07-.07.12-.13.17s-.12.1-.2.12a.8.8 0 0 1-.5 0 .57.57 0 0 1-.18-.12.51.51 0 0 1-.13-.17.58.58 0 0 1 0-.45.52.52 0 0 1 .13-.17.57.57 0 0 1 .19-.11.8.8 0 0 1 .5 0c.07.03.14.06.2.11s.09.11.12.18c.03.07.04.14.04.22zm-.18 0-.03-.18a.36.36 0 0 0-.23-.22.58.58 0 0 0-.36 0 .37.37 0 0 0-.23.22.52.52 0 0 0 0 .36.38.38 0 0 0 .23.22.6.6 0 0 0 .36 0 .4.4 0 0 0 .14-.09.38.38 0 0 0 .09-.13.46.46 0 0 0 .03-.18zM14.19 21.64l.02.04.01-.04.03-.04.42-.67.02-.02h.16v1.08h-.15V21.13l-.42.67c0 .01-.01.02-.03.02l-.03.01h-.06l-.03-.03-.43-.68V22h-.14V20.9h.12a.1.1 0 0 1 .04 0l.02.03.43.66.02.04zM15.77 21.58v.4h-.16v-1.07h.36c.07 0 .14 0 .2.02s.11.04.15.07l.09.1.02.15c0 .04 0 .09-.03.13a.3.3 0 0 1-.09.11.43.43 0 0 1-.14.07.7.7 0 0 1-.2.03h-.2zm0-.11h.2a.5.5 0 0 0 .13-.02.28.28 0 0 0 .1-.04.19.19 0 0 0 .05-.08.22.22 0 0 0 .02-.09c0-.03 0-.06-.02-.09l-.06-.07a.35.35 0 0 0-.22-.06h-.2v.45zM17.98 21.99h-.13l-.03-.01-.02-.03-.12-.26h-.56l-.11.26-.02.03a.07.07 0 0 1-.04.01h-.13l.5-1.08h.16l.5 1.08zm-.81-.4h.46l-.2-.44a.73.73 0 0 1-.03-.1l-.02.05-.02.05-.2.44zM18.7 20.91l.02.02.72.82v-.84h.15v1.08h-.12l-.03-.03-.71-.8V21.98h-.15v-1.08h.12zM20.8 21.56v.43h-.16v-.43l-.46-.65h.18l.03.03.28.42.03.05.02.05.02-.05.03-.05.28-.42.02-.02.04-.01h.15l-.46.65zM14.1 19.1l.23.02c1.1-.44 2.05-1.14 2.7-2.04s.98-1.93.95-2.98l-1.22-1.07c.25 1.13.13 2.29-.34 3.36s-1.27 2-2.31 2.7z"/><path d="M13.67 19.05h.03c1.12-.7 1.97-1.66 2.45-2.78s.56-2.34.23-3.5l-1.75-1.52c.7 1.25 1 2.64.82 4.02s-.79 2.69-1.78 3.78zM19.58 15.34a5.44 5.44 0 0 1-2.05 2.99c-.3.23-.63.43-.97.6.84-.2 1.61-.59 2.26-1.1s1.15-1.16 1.47-1.87l-.7-.62z"/><path d="m19.3 15.17-1-.87c-.02 1-.35 1.97-.95 2.82s-1.45 1.55-2.46 2.01c.23 0 .46 0 .68-.03.95-.34 1.78-.87 2.44-1.56s1.1-1.5 1.3-2.37zM13.82 10.62l-1.2-1.05c-1.08.36-2 1-2.65 1.82s-1 1.8-1.01 2.8c0 1.1.43 2.17 1.22 3.04s1.88 1.5 3.11 1.76c1.1-1.17 1.75-2.6 1.84-4.11s-.37-3-1.31-4.27zM22.08 15.01c0-1.3-.6-2.56-1.67-3.5s-2.52-1.44-4.03-1.44c-.7 0-1.38.1-2.03.33l7.35 6.38c.25-.56.38-1.16.38-1.77z"/></symbol><symbol id="icon-Logo-1" viewBox="0 0 32 32"><path d="M15.13 8.8h-.37a7.43 7.43 0 0 0-.39 0c-1.1.06-2.18.34-3.17.81l-.14.06v6.69l.3-.1a10.39 10.39 0 0 1 3.3-.58v.88h-.35a9.71 9.71 0 0 0-4.12 1.17V9.15a9.02 9.02 0 0 1 4.57-1.24h.13l.44.02c.38.03.75.09 1.1.18v.86c-.34-.08-.7-.13-1.06-.16h-.02l-.22-.01zm1.52.88a9.48 9.48 0 0 0 5.16-1.15v8.42A9 9 0 0 1 15.56 18V9.52a6.86 6.86 0 0 0 1.09.16zm4.29.07-.31.1a10.35 10.35 0 0 1-3.95.56l-.24-.01v6.87l.2.02.6.03a8.13 8.13 0 0 0 3.57-.82l.13-.07V9.75zM10.79 20.66a.45.45 0 0 0-.34-.14.5.5 0 0 0-.2.04c-.05.02-.1.05-.15.1s-.08.1-.1.15a.5.5 0 0 0-.03.2v1.14c0 .08.01.16.04.23.03.06.07.11.12.16l.15.08.18.02a.49.49 0 0 0 .48-.48v-.13h-.3v.1c0 .04-.01.07-.03.1a.19.19 0 0 1-.04.07.22.22 0 0 1-.13.04.15.15 0 0 1-.14-.06.28.28 0 0 1-.04-.15v-1.07c0-.06.01-.12.04-.17l.06-.06a.16.16 0 0 1 .09-.01l.07.01.06.05c.03.05.05.1.05.16v.1h.3v-.12a.52.52 0 0 0-.14-.36zM12.57 20.64a.53.53 0 0 0-.52-.09.47.47 0 0 0-.27.25.55.55 0 0 0-.05.23v1.1c0 .07.01.15.04.22.03.06.07.11.12.15a.5.5 0 0 0 .52.1.5.5 0 0 0 .27-.25.53.53 0 0 0 .04-.23v-1.1a.53.53 0 0 0-.04-.22.49.49 0 0 0-.11-.16zm-.14 1.48c0 .03 0 .06-.02.1l-.04.06a.22.22 0 0 1-.29 0 .2.2 0 0 1-.06-.16v-1.1a.2.2 0 0 1 .06-.15.22.22 0 0 1 .29 0 .2.2 0 0 1 .06.16v1.1zM14.9 22.61v-2.08h-.28l-.38 1.1-.39-1.1h-.28v2.08h.3v-1.26l.29.9h.15l.29-.9v1.26h.3zM16.6 20.68a.43.43 0 0 0-.18-.11.63.63 0 0 0-.21-.04h-.44v2.08h.3v-.8h.15c.09 0 .18-.02.26-.06.07-.04.13-.1.17-.16a.5.5 0 0 0 .06-.18 1.43 1.43 0 0 0 0-.54.44.44 0 0 0-.12-.19zm-.16.64c0 .03-.01.07-.03.1a.17.17 0 0 1-.08.08.3.3 0 0 1-.14.02h-.13v-.7h.15c.05 0 .1 0 .14.02l.07.08.02.11V21.32zM18 20.54h-.25l-.46 2.08h.3l.09-.45h.4l.09.45h.3l-.48-2.08zm-.28 1.35.15-.76.15.76h-.3zM19.9 21.79l-.44-1.25h-.29v2.08h.3v-1.26l.46 1.26h.27v-2.08h-.3v1.25zM21.72 20.54l-.24.82-.24-.82h-.32l.41 1.2v.88h.3v-.88l.4-1.2h-.31zM9.96 23.2h.14v.4h.1v-.4h.14v-.08h-.38v.08zM11.16 23.12l-.18.48h.1l.04-.1h.2l.03.1h.1l-.18-.48h-.1zm-.01.3.06-.19.07.18h-.13zM12.35 23.43h.11v.06a.2.2 0 0 1-.11.04.13.13 0 0 1-.1-.05.2.2 0 0 1-.04-.12c0-.11.04-.17.14-.17.02 0 .05 0 .07.02l.04.06.1-.02c-.03-.1-.1-.14-.21-.14a.25.25 0 0 0-.17.06.24.24 0 0 0-.07.19c0 .07.02.13.06.18l.08.06c.03.02.07.01.1.01.08 0 .15-.02.2-.08v-.19h-.2v.09zM13.56 23.12h-.1v.48h.34v-.08h-.24v-.4zM14.59 23.12h-.1v.48h.1v-.48zM15.59 23.44l-.2-.32h-.1v.48h.1v-.31l.19.31h.1v-.48h-.1v.32zM16.5 23.39h.23v-.08h-.24v-.1h.26v-.09h-.35v.48h.36v-.08h-.27v-.13zM18.69 23.31h-.19v-.19h-.1v.48h.1v-.2h.19v.2h.1v-.48h-.1v.2zM19.6 23.39h.24v-.08h-.24v-.1h.26v-.09h-.35v.48h.36v-.08h-.27v-.13zM20.84 23.39c.08-.01.12-.06.12-.13v-.06l-.04-.05a.27.27 0 0 0-.14-.03h-.2v.48h.09v-.2h.02l.06.01a.1.1 0 0 1 .03.04l.1.15H21l-.06-.1a.34.34 0 0 0-.1-.1zm-.1-.07h-.07v-.12h.07c.04 0 .07 0 .1.02 0 0 .02 0 .02.02v.05l-.02.02a.28.28 0 0 1-.1.02zM21.77 23.39H22v-.08h-.24v-.1h.26v-.09h-.36v.48h.37v-.08h-.27v-.13z"/></symbol><symbol id="icon-Logo" viewBox="0 0 32 32"><path d="m11.47 9.12 2.12 2H9.66v9.72h10.26v-3.72l2.12 2v-10H11.47zm8.36 7.77-6-5.68h6v5.68zm-1.86 2.53h-6.69v-6.54h.48v6.1h6.2v.44zm-5.1 2.71-.25.51-.25-.5h-.2l.35.67v.4h.19v-.4l.36-.68h-.2zm.3 1.07.09-.25h.42l.08.25h.2l-.4-1.07h-.17l-.4 1.07h.18zm.3-.84.15.45h-.3l.15-.45zm.98.42a.28.28 0 0 0 .05.36c.07.05.15.08.26.08s.2-.03.27-.09l.06.08h.21l-.16-.2c.07-.08.1-.18.1-.32h-.16c0 .08-.01.14-.04.2l-.21-.24.07-.06c.06-.03.1-.07.11-.1s.04-.09.04-.13c0-.07-.03-.13-.08-.17s-.11-.07-.19-.07-.15.02-.2.07-.08.12-.08.2c0 .04 0 .07.02.1l.09.14a.62.62 0 0 0-.16.15zm.49.24a.28.28 0 0 1-.17.06c-.06 0-.1-.02-.13-.05s-.05-.07-.05-.12c0-.06.03-.11.09-.15l.02-.02.24.28zm-.2-.48c-.05-.06-.07-.11-.07-.15 0-.04 0-.07.03-.1s.05-.03.08-.03.06.01.08.03.03.05.03.07c0 .05-.01.08-.04.1l-.03.03-.08.05zm1.75.58a.39.39 0 0 0 .13-.26h-.19c0 .07-.03.13-.07.16s-.1.05-.16.05c-.08 0-.15-.03-.19-.1s-.06-.14-.06-.26v-.1c0-.1.02-.2.07-.25s.1-.1.18-.1c.07 0 .13.03.16.06s.06.09.07.17h.19c-.02-.12-.06-.21-.13-.27s-.17-.1-.29-.1c-.08 0-.16.02-.23.06s-.12.1-.15.18-.06.16-.06.27v.1c0 .1.02.18.06.26s.08.13.15.17c.06.04.14.06.22.06.13 0 .22-.03.3-.1zm1.1-.15a.67.67 0 0 0 .05-.27v-.06c0-.1-.02-.2-.06-.28s-.08-.14-.15-.18c-.07-.04-.15-.06-.23-.06s-.17.02-.24.06c-.06.04-.12.1-.15.19s-.06.17-.06.27v.06c0 .1.02.2.06.28s.09.13.15.18c.07.04.15.06.24.06s.16-.02.23-.06c.07-.05.12-.1.16-.19zm-.2-.6c.04.06.06.15.06.27v.06c0 .12-.02.2-.06.27s-.11.1-.2.1c-.08 0-.14-.04-.19-.1s-.06-.16-.06-.27v-.07c0-.11.02-.2.06-.26s.11-.1.2-.1c.08 0 .14.03.18.1z"/></symbol><symbol id="icon-linkedin-1" viewBox="0 0 32 32"><path d="M32 32V20.26c0-5.74-1.24-10.16-7.95-10.16-3.23 0-5.39 1.77-6.27 3.45h-.1v-2.92h-6.36V32h6.63V21.42c0-2.79.52-5.48 3.97-5.48 3.4 0 3.45 3.18 3.45 5.66V32H32zM.53 10.64h6.63V32H.53V10.64zM3.84 0C1.72 0 0 1.72 0 3.84s1.72 3.88 3.84 3.88A3.88 3.88 0 0 0 7.7 3.84 3.85 3.85 0 0 0 3.84 0z"/></symbol><symbol id="icon-facebook-1" viewBox="0 0 32 32"><path d="M21.33 5.31h2.92V.23C23.75.15 22.01 0 19.99 0c-4.2 0-7.1 2.65-7.1 7.52V12H8.26v5.69h4.65V32h5.7V17.69h4.46l.7-5.69H18.6V8.08c0-1.64.45-2.77 2.74-2.77z"/></symbol><symbol id="icon-twitter-1" viewBox="0 0 32 32"><path d="M32 6.08c-1.19.52-2.46.87-3.78 1.03a6.52 6.52 0 0 0 2.89-3.62 13.11 13.11 0 0 1-4.16 1.59 6.57 6.57 0 0 0-11.2 5.98A18.57 18.57 0 0 1 2.23 4.2a6.57 6.57 0 0 0 2.02 8.77 6.48 6.48 0 0 1-2.97-.81v.07a6.59 6.59 0 0 0 5.26 6.44 6.55 6.55 0 0 1-2.97.1 6.62 6.62 0 0 0 6.13 4.58 13.18 13.18 0 0 1-9.7 2.7A18.47 18.47 0 0 0 10.06 29c12.08 0 18.68-10 18.68-18.67 0-.29-.01-.57-.03-.85 1.3-.92 2.4-2.07 3.29-3.4z"/></symbol><symbol id="icon-instagram-2" viewBox="0 0 32 32"><path d="M31.97 9.4a11.7 11.7 0 0 0-.74-3.87 7.8 7.8 0 0 0-1.86-2.84A7.87 7.87 0 0 0 26.54.84C25.52.45 24.36.17 22.66.1 20.95.02 20.4 0 16.06 0s-4.89.02-6.6.1C7.76.16 6.6.43 5.58.83a7.8 7.8 0 0 0-2.84 1.85A7.87 7.87 0 0 0 .9 5.52C.5 6.54.23 7.7.16 9.4c-.08 1.71-.1 2.26-.1 6.6s.02 4.9.09 6.6c.08 1.7.35 2.87.74 3.88a7.9 7.9 0 0 0 1.85 2.84c.8.81 1.77 1.44 2.84 1.84 1.02.4 2.18.67 3.88.75 1.7.07 2.25.09 6.6.09s4.88-.02 6.59-.1a11.7 11.7 0 0 0 3.88-.74 8.18 8.18 0 0 0 4.68-4.68c.4-1.02.67-2.18.75-3.88.07-1.7.09-2.25.09-6.6s0-4.89-.08-6.6zm-2.88 13.07a8.76 8.76 0 0 1-.55 2.97 5.31 5.31 0 0 1-3.04 3.04c-.56.22-1.41.48-2.97.55-1.69.07-2.2.1-6.46.1s-4.79-.02-6.47-.1a8.76 8.76 0 0 1-2.97-.55 4.93 4.93 0 0 1-1.84-1.2 4.97 4.97 0 0 1-1.19-1.83 8.81 8.81 0 0 1-.55-2.97c-.07-1.69-.1-2.2-.1-6.47s.03-4.78.1-6.46c.07-1.56.33-2.4.55-2.97.26-.7.66-1.32 1.2-1.84a4.97 4.97 0 0 1 1.84-1.19A8.81 8.81 0 0 1 9.6 3c1.69-.07 2.2-.1 6.46-.1 4.28 0 4.78.03 6.47.1 1.56.07 2.4.33 2.96.55.7.26 1.33.66 1.84 1.2.53.51.94 1.14 1.2 1.83.22.57.48 1.42.55 2.97.07 1.69.1 2.2.1 6.46s-.03 4.77-.1 6.46z"/><path d="M16.06 7.78a8.22 8.22 0 1 0 0 16.45 8.22 8.22 0 0 0 0-16.45zm0 13.55a5.33 5.33 0 1 1 0-10.66 5.33 5.33 0 0 1 0 10.67zM26.52 7.46a1.92 1.92 0 1 1-3.83 0 1.92 1.92 0 0 1 3.83 0z"/></symbol><symbol id="icon-astronaut-1" viewBox="0 0 32 32"><path fill="#2196f3" style="fill:var(--color2, #2196f3)" d="M31.97 4.52a.53.53 0 0 0-.43-.36l-1.9-.28-.86-1.73c-.18-.36-.78-.36-.96 0l-.85 1.73-1.91.28a.54.54 0 0 0-.3.91l1.38 1.35-.32 1.9c-.04.2.05.4.21.52.17.12.38.14.56.04l1.71-.9 1.71.9a.54.54 0 0 0 .78-.56l-.33-1.9 1.38-1.35c.15-.14.2-.35.14-.55zm-2.46 1.33a.53.53 0 0 0-.15.47l.19 1.12-1-.53a.53.53 0 0 0-.5 0l-1 .53.2-1.12a.53.53 0 0 0-.16-.47l-.81-.79 1.12-.16a.53.53 0 0 0 .4-.3l.5-1 .5 1c.08.16.23.27.4.3l1.12.16-.8.8zM26.13 20.52h-1.06v1.07h1.06v-1.07zM26.13 22.66h-1.06v1.06h1.06v-1.06zM27.2 21.59h-1.07v1.07h1.07v-1.07zM25.07 21.59H24v1.07h1.07v-1.07zM22.4 26.39h-1.07v1.07h1.07v-1.07zM22.4 28.52h-1.07v1.07h1.07v-1.07zM23.47 27.46H22.4v1.06h1.07v-1.06zM21.33 27.46h-1.06v1.06h1.06v-1.06zM16 24.26h-1.07v1.06H16v-1.06zM16 26.39h-1.07v1.07H16v-1.07zM17.07 25.32H16v1.07h1.07v-1.07zM14.93 25.32h-1.06v1.07h1.06v-1.07zM5.87 6.12H4.8V7.2h1.07V6.12zM5.87 8.26H4.8v1.06h1.07V8.26zM6.93 7.19H5.87v1.07h1.06V7.19zM4.8 7.19H3.73v1.07H4.8V7.19z"/><path fill="#212121" style="fill:var(--color3, #212121)" d="M24.71 14.16c-.28-.39-.7-.64-1.18-.7-.48-.07-.96.05-1.34.35l-1.26.96-1.9 1.41-1.35-.54A6.94 6.94 0 0 0 14.83 2.4a6.96 6.96 0 0 0-6.96 6.93c0 1.39.42 2.68 1.12 3.76l-2.76-.02H6.2l-.16.03-.03.02h-.02l-3.24 1.6-1.89.9a1.78 1.78 0 0 0 .93 3.3c.3.01.58-.06.84-.2l1.4-.74 2.26-1.17h1.35L2.2 22.2.86 23.55a1.65 1.65 0 0 0 0 2.35 1.67 1.67 0 0 0 2.36 0l1.31-1.3 1.74-1.3.9.89-1.76 1.75-1.34 1.34a1.65 1.65 0 0 0 0 2.36 1.67 1.67 0 0 0 2.36 0l3.48-3.47 1.01-1 .02-.02 5.17-5.66 3.47.5h.07c.07 0 .13-.02.2-.04l.04-.02.06-.03 3.21-2.13.03-.03.04-.03 1.27-1.19c.67-.62.76-1.63.22-2.36zM2.14 17.77a.71.71 0 0 1-.56.05.72.72 0 0 1-.21-1.26l1.31-.63.45 1.31-.99.53zm3.5-1.83-1.55.8-.44-1.28 2.03-1-.04 1.48zm15.1-6.62c0 .92-.22 1.79-.6 2.56l-4.18-1.9a1.86 1.86 0 0 0-.8-1.39l1.47-4.86a5.88 5.88 0 0 1 4.1 5.6zm-11.8 0a5.89 5.89 0 0 1 6.65-5.81l-1.44 4.75h-.05a1.87 1.87 0 1 0 0 3.73c.7 0 1.3-.38 1.62-.95l3.86 1.76A5.9 5.9 0 0 1 8.94 9.32zm5.96.8a.8.8 0 0 1-1.6 0 .8.8 0 0 1 1.6 0zM2.46 25.15a.6.6 0 0 1-.85 0 .6.6 0 0 1 0-.85l.96-.96.85.85-.96.96zm3.22 3.73a.6.6 0 0 1-.86 0 .6.6 0 0 1 0-.84l.97-.96.85.85-.96.95zm3.48-3.47-1.77 1.76-.85-.85 1.76-1.75c.05-.04.07-.09.1-.14l.02-.04c.02-.04.02-.08.03-.13l.01-.07-.02-.1c0-.04 0-.07-.02-.1a.55.55 0 0 0-.09-.14l-.02-.04-1.61-1.6-.06-.04a.5.5 0 0 0-.09-.05.51.51 0 0 0-.09-.04.5.5 0 0 0-.1-.02.5.5 0 0 0-.1 0l-.1.03a.48.48 0 0 0-.1.04l-.06.03-1.77 1.33-.9-.9 2.4-2.39 4.36 4.3-.93.91zm6.82-7.02h-.05a.56.56 0 0 0-.3.08.5.5 0 0 0-.08.06l-.04.03-4.7 5.15-4.33-4.26 2.84-2.82a.53.53 0 0 0-.38-.9H6.72l.03-1.6 3.1.02a6.95 6.95 0 0 0 6.26 1.98c.04.03.08.07.13.09l2.41.96.15.75.18.89-3-.43zm4.04.18-.31-1.56 1.44-1.08.95 1.26-2.08 1.38zm3.75-2.83-.83.79-.94-1.24.84-.64a.73.73 0 0 1 .54-.14.72.72 0 0 1 .4 1.23z"/><path fill="#212121" style="fill:var(--color3, #212121)" d="m13.6 18.54-2.14-2.13a.53.53 0 0 0-.75 0l-2.15 2.13a.54.54 0 0 0 0 .76l2.15 2.13a.54.54 0 0 0 .75 0l2.14-2.13a.54.54 0 0 0 0-.76zm-2.52 1.76L9.7 18.92l1.38-1.38 1.39 1.38-1.39 1.38zM17.16 5.07l-.25 1.04c.07.01 1.73.45 1.73 2.15h1.07c0-2.02-1.66-2.97-2.55-3.19zM19.71 9.32h-1.07v1.07h1.07V9.32z"/></symbol><symbol id="icon-diagram-1" viewBox="0 0 32 32"><path fill="#2196f3" style="fill:var(--color2, #2196f3)" d="M14.93 14.96h1.06v4.8h-1.06v-4.8zM19.19 17.1h1.07v2.66h-1.07V17.1zM10.66 18.7h1.07v1.06h-1.07V18.7zM7.46 18.16h1.07v1.6H7.46v-1.6z"/><path fill="#212121" style="fill:var(--color3, #212121)" d="M1.6 28.3h25.59c.88 0 1.6-.73 1.6-1.6v-2.14c0-.88-.72-1.6-1.6-1.6h-.54V9.66l3.03-2.86a1.6 1.6 0 1 0-.75-.76L26.65 8.2V6.97c0-.88-.71-1.6-1.6-1.6H3.73c-.88 0-1.6.72-1.6 1.6v16H1.6c-.88 0-1.6.7-1.6 1.6v2.12c0 .89.72 1.6 1.6 1.6zM30.38 4.83a.53.53 0 1 1 0 1.06.53.53 0 0 1 0-1.06zM3.2 6.97c0-.3.24-.53.53-.53h21.32c.3 0 .54.23.54.53V9.2l-1.07 1.01V8.03c0-.29-.24-.53-.53-.53H4.79c-.29 0-.53.24-.53.53v13.33c0 .3.24.53.54.53h19.19c.3 0 .53-.23.53-.53V11.7l1.07-1.01v12.28H3.19v-16zM8 13.9a1.6 1.6 0 1 0 1.1 2.75l1.86.93c.21.1.47.06.63-.12l3.94-4.44 3.87 2.9c.21.16.5.14.69-.03l3.36-3.2v8.14H5.33V8.57h18.12v2.66l-3.77 3.57-3.9-2.93a.53.53 0 0 0-.72.08l-4 4.49-1.49-.75c.02-.06.02-.13.02-.19 0-.88-.71-1.6-1.6-1.6zm.53 1.6a.53.53 0 1 1-1.07 0 .53.53 0 0 1 1.07 0zm3.2 8.53h5.33v.53c0 .3-.24.53-.53.53h-4.27a.53.53 0 0 1-.53-.53v-.53zm-10.66.53c0-.3.24-.53.53-.53h9.06v.53c0 .88.72 1.6 1.6 1.6h4.26c.89 0 1.6-.72 1.6-1.6v-.53h9.06c.3 0 .54.24.54.53v2.13c0 .3-.24.53-.53.53H1.59a.53.53 0 0 1-.52-.53v-2.13z"/></symbol><symbol id="icon-clock-1" viewBox="0 0 32 32"><path fill="#212121" style="fill:var(--color3, #212121)" d="M31.3 15.3a15.3 15.3 0 1 0-19.96 14.58l.18.03c.12 0 .24-.03.35-.1.13-.07.23-.2.28-.35L16 17.21a1.91 1.91 0 1 0-.84-3.63l-5.1-5.1a.64.64 0 0 0-.9.9l5.1 5.1c-.4.8-.17 1.77.53 2.31l-3.68 11.67a14.04 14.04 0 1 1 10.57-.35l-.4-1.87a.64.64 0 0 0-1.04-.34l-3.84 3.42a.64.64 0 0 0 .23 1.09l4.9 1.56a.64.64 0 0 0 .82-.74l-.4-1.84A15.26 15.26 0 0 0 31.3 15.3zM16 14.66a.64.64 0 1 1 0 1.28.64.64 0 0 1 0-1.28zm2.1 14.87 2.18-1.95.6 2.84-2.79-.9z"/><path fill="#2196f3" style="fill:var(--color2, #2196f3)" d="M15.35 3.19v1.27a.64.64 0 1 0 1.28 0V3.19a.64.64 0 0 0-1.28 0zM3.88 14.66a.64.64 0 0 0 0 1.28h1.27a.64.64 0 1 0 0-1.28H3.88zM28.1 15.94a.64.64 0 1 0 0-1.28h-1.27a.64.64 0 0 0 0 1.28h1.28z"/></symbol><symbol id="icon-antenna-1" viewBox="0 0 32 32"><path fill="#212121" style="fill:var(--color3, #212121)" d="m30.77 22.1-8.44-8.5.94-4.62c.24.1.5.14.75.14h.01a2.16 2.16 0 1 0-2-1.43l-4.97.6L8.97.16A.53.53 0 0 0 8.6 0a.53.53 0 0 0-.37.16l-1.51 1.5c-.2.2-.2.55 0 .75l.81.83a14.94 14.94 0 0 0 2.52 17.66c.05.04.1.08.15.1-.04.18-.05.36-.05.55v6.18h-6.4a2.67 2.67 0 0 0-2.67 2.67v1.07c0 .3.24.53.53.53h24.54c.29 0 .53-.24.53-.53V30.4c0-1.47-1.2-2.66-2.67-2.66h-6.4v-2.75a14.85 14.85 0 0 0 10.09-1.46l.82.82a.53.53 0 0 0 .75 0l1.51-1.5c.2-.2.2-.54 0-.75zM23.28 6.23a1.07 1.07 0 1 1 .75 1.82 1.07 1.07 0 0 1-.75-1.82zm-1.26 3.5-.6 2.95-1.17-1.18 1.78-1.76zm-.6-.9-1.92 1.92L18 9.25l3.4-.41zM24 28.8c.89 0 1.6.72 1.6 1.6v.53H2.14v-.53c0-.88.71-1.6 1.6-1.6H24zm-7.46-2.13v1.06H11.2v-1.06h5.34zM11.2 25.6v-4.05c0-1.3 1.2-2.35 2.67-2.35s2.67 1.05 2.67 2.35v4.05H11.2zm6.4-1.7v-2.35c0-1.89-1.67-3.42-3.73-3.42a3.8 3.8 0 0 0-3.28 1.79A13.87 13.87 0 0 1 8.31 4.03l18.6 18.71a13.82 13.82 0 0 1-9.3 1.16zm11.3-.68L7.83 2.04l.75-.75 7.94 7.98 13.12 13.2-.76.75z"/><path fill="#2196f3" style="fill:var(--color2, #2196f3)" d="M13.88 20.27a1.6 1.6 0 1 0-.01 3.2 1.6 1.6 0 1 0 0-3.2zm.37 1.98c-.1.1-.24.15-.38.15a.53.53 0 0 1 0-1.07.53.53 0 0 1 .37.92z"/></symbol><symbol id="icon-envelope" viewBox="0 0 32 32"><path fill="#757575" style="fill:var(--color2, #757575)" d="M29 4H3a3 3 0 0 0-3 3v18a3 3 0 0 0 3 3h26a3 3 0 0 0 3-3V7a3 3 0 0 0-3-3zm0 2a1 1 0 0 1 .38.08L16 17.68 2.62 6.08A1 1 0 0 1 3 6h26zm0 20H3a1 1 0 0 1-1-1V8.19l13.35 11.57a1 1 0 0 0 1.3 0L30 8.19V25a1 1 0 0 1-1 1z"/></symbol><symbol id="icon-smartphone" viewBox="0 0 32 32"><path fill="#757575" style="fill:var(--color4, #757575)" d="M23 0H9a3 3 0 0 0-3 3v26a3 3 0 0 0 3 3h14a3 3 0 0 0 3-3V3a3 3 0 0 0-3-3zM9 2h14a1 1 0 0 1 1 1v21H8V3a1 1 0 0 1 1-1zm14 28H9a1 1 0 0 1-1-1v-3h16v3a1 1 0 0 1-1 1z"/><path fill="#757575" style="fill:var(--color4, #757575)" d="M10.7 27.48c.4.36.4.95 0 1.32s-1.02.36-1.4 0c-.4-.37-.4-.96 0-1.32s1.02-.37 1.4 0z"/></symbol></defs></svg>